<mxfile host="app.diagrams.net" agent="Mozilla/5.0 (Windows NT 10.0; Win64; x64) AppleWebKit/537.36 (KHTML, like Gecko) Chrome/133.0.0.0 Safari/537.36" version="26.0.15">
  <diagram name="Seite-1" id="9vJdxZURc0VIwFPbBaw4">
    <mxGraphModel dx="925" dy="476" grid="1" gridSize="10" guides="1" tooltips="1" connect="1" arrows="1" fold="1" page="1" pageScale="1" pageWidth="827" pageHeight="1169" math="0" shadow="0">
      <root>
        <mxCell id="0" />
        <mxCell id="1" parent="0" />
        <mxCell id="EfiDl4dNKSc0IvjRuqJi-12" style="edgeStyle=orthogonalEdgeStyle;rounded=0;orthogonalLoop=1;jettySize=auto;html=1;" edge="1" parent="1" source="EfiDl4dNKSc0IvjRuqJi-1" target="EfiDl4dNKSc0IvjRuqJi-3">
          <mxGeometry relative="1" as="geometry" />
        </mxCell>
        <mxCell id="EfiDl4dNKSc0IvjRuqJi-20" style="edgeStyle=orthogonalEdgeStyle;rounded=0;orthogonalLoop=1;jettySize=auto;html=1;entryX=0.5;entryY=1;entryDx=0;entryDy=0;" edge="1" parent="1" source="EfiDl4dNKSc0IvjRuqJi-1" target="EfiDl4dNKSc0IvjRuqJi-18">
          <mxGeometry relative="1" as="geometry" />
        </mxCell>
        <mxCell id="EfiDl4dNKSc0IvjRuqJi-1" value="ARViewModel" style="rounded=1;whiteSpace=wrap;html=1;" vertex="1" parent="1">
          <mxGeometry x="340" y="350" width="120" height="60" as="geometry" />
        </mxCell>
        <mxCell id="EfiDl4dNKSc0IvjRuqJi-14" style="edgeStyle=orthogonalEdgeStyle;rounded=0;orthogonalLoop=1;jettySize=auto;html=1;entryX=0;entryY=0.5;entryDx=0;entryDy=0;" edge="1" parent="1" source="EfiDl4dNKSc0IvjRuqJi-2" target="EfiDl4dNKSc0IvjRuqJi-1">
          <mxGeometry relative="1" as="geometry" />
        </mxCell>
        <mxCell id="EfiDl4dNKSc0IvjRuqJi-2" value="ARView/&lt;div&gt;ContentView&lt;/div&gt;" style="rounded=1;whiteSpace=wrap;html=1;" vertex="1" parent="1">
          <mxGeometry x="130" y="350" width="120" height="60" as="geometry" />
        </mxCell>
        <mxCell id="EfiDl4dNKSc0IvjRuqJi-3" value="EntityModels" style="rounded=1;whiteSpace=wrap;html=1;" vertex="1" parent="1">
          <mxGeometry x="540" y="350" width="120" height="60" as="geometry" />
        </mxCell>
        <mxCell id="EfiDl4dNKSc0IvjRuqJi-15" value="&lt;font color=&quot;#0000ff&quot;&gt;Observer&lt;/font&gt;" style="text;html=1;align=center;verticalAlign=middle;resizable=0;points=[];autosize=1;strokeColor=none;fillColor=none;" vertex="1" parent="1">
          <mxGeometry x="255" y="350" width="70" height="30" as="geometry" />
        </mxCell>
        <mxCell id="EfiDl4dNKSc0IvjRuqJi-17" value="&lt;font style=&quot;color: rgb(0, 0, 255);&quot;&gt;Scene&lt;/font&gt;" style="text;html=1;align=center;verticalAlign=middle;resizable=0;points=[];autosize=1;strokeColor=none;fillColor=none;" vertex="1" parent="1">
          <mxGeometry x="465" y="350" width="60" height="30" as="geometry" />
        </mxCell>
        <mxCell id="EfiDl4dNKSc0IvjRuqJi-18" value="ARSession" style="rounded=1;whiteSpace=wrap;html=1;" vertex="1" parent="1">
          <mxGeometry x="340" y="230" width="120" height="60" as="geometry" />
        </mxCell>
        <mxCell id="EfiDl4dNKSc0IvjRuqJi-21" value="&lt;font style=&quot;color: rgb(0, 0, 255);&quot;&gt;ARSessionDelegate&lt;/font&gt;" style="text;html=1;align=center;verticalAlign=middle;resizable=0;points=[];autosize=1;strokeColor=none;fillColor=none;" vertex="1" parent="1">
          <mxGeometry x="270" y="300" width="130" height="30" as="geometry" />
        </mxCell>
        <mxCell id="EfiDl4dNKSc0IvjRuqJi-25" style="edgeStyle=orthogonalEdgeStyle;rounded=0;orthogonalLoop=1;jettySize=auto;html=1;entryX=0.5;entryY=1;entryDx=0;entryDy=0;endArrow=none;startFill=0;" edge="1" parent="1" source="EfiDl4dNKSc0IvjRuqJi-22" target="EfiDl4dNKSc0IvjRuqJi-3">
          <mxGeometry relative="1" as="geometry" />
        </mxCell>
        <mxCell id="EfiDl4dNKSc0IvjRuqJi-22" value="SmokeDetector" style="rounded=1;whiteSpace=wrap;html=1;" vertex="1" parent="1">
          <mxGeometry x="540" y="450" width="120" height="60" as="geometry" />
        </mxCell>
        <mxCell id="EfiDl4dNKSc0IvjRuqJi-27" style="edgeStyle=orthogonalEdgeStyle;rounded=0;orthogonalLoop=1;jettySize=auto;html=1;entryX=0.75;entryY=1;entryDx=0;entryDy=0;exitX=0.25;exitY=0;exitDx=0;exitDy=0;endArrow=none;startFill=0;curved=1;" edge="1" parent="1" source="EfiDl4dNKSc0IvjRuqJi-23" target="EfiDl4dNKSc0IvjRuqJi-3">
          <mxGeometry relative="1" as="geometry" />
        </mxCell>
        <mxCell id="EfiDl4dNKSc0IvjRuqJi-23" value="DistanceIndicators" style="rounded=1;whiteSpace=wrap;html=1;" vertex="1" parent="1">
          <mxGeometry x="680" y="450" width="120" height="60" as="geometry" />
        </mxCell>
        <mxCell id="EfiDl4dNKSc0IvjRuqJi-26" style="edgeStyle=orthogonalEdgeStyle;rounded=0;orthogonalLoop=1;jettySize=auto;html=1;entryX=0.25;entryY=1;entryDx=0;entryDy=0;exitX=0.75;exitY=0;exitDx=0;exitDy=0;endArrow=none;startFill=0;curved=1;" edge="1" parent="1" source="EfiDl4dNKSc0IvjRuqJi-24" target="EfiDl4dNKSc0IvjRuqJi-3">
          <mxGeometry relative="1" as="geometry" />
        </mxCell>
        <mxCell id="EfiDl4dNKSc0IvjRuqJi-24" value="FocusEntity" style="rounded=1;whiteSpace=wrap;html=1;" vertex="1" parent="1">
          <mxGeometry x="400" y="450" width="120" height="60" as="geometry" />
        </mxCell>
      </root>
    </mxGraphModel>
  </diagram>
</mxfile>
